<svg xmlns="http://www.w3.org/2000/svg" width="1120" height="640" viewBox="0 0 1120 640">
<rect width="100%" height="100%" fill="white"/>
<style>text{font-family:Arial,Helvetica,sans-serif;fill:#111}.grid{stroke:#ddd;stroke-width:1}.axis{stroke:#111;stroke-width:1.5}.line{fill:none;stroke-width:2.5}.fit{fill:none;stroke-width:1.8;stroke-dasharray:6 4}.dot{stroke:white;stroke-width:1}</style>
<text x="560.0" y="30" text-anchor="middle" font-size="18" font-weight="700">Fixed k=4: total CPU time after subtracting fitted intercept</text>
<line class="grid" x1="105" y1="560.00" x2="910" y2="560.00"/>
<text x="95" y="564.00" text-anchor="end" font-size="12">0.00000</text>
<line class="grid" x1="105" y1="458.00" x2="910" y2="458.00"/>
<text x="95" y="462.00" text-anchor="end" font-size="12">0.02597</text>
<line class="grid" x1="105" y1="356.00" x2="910" y2="356.00"/>
<text x="95" y="360.00" text-anchor="end" font-size="12">0.05193</text>
<line class="grid" x1="105" y1="254.00" x2="910" y2="254.00"/>
<text x="95" y="258.00" text-anchor="end" font-size="12">0.07790</text>
<line class="grid" x1="105" y1="152.00" x2="910" y2="152.00"/>
<text x="95" y="156.00" text-anchor="end" font-size="12">0.10386</text>
<line class="grid" x1="105" y1="50.00" x2="910" y2="50.00"/>
<text x="95" y="54.00" text-anchor="end" font-size="12">0.12983</text>
<line class="grid" x1="105.00" y1="50" x2="105.00" y2="560"/>
<text x="105.00" y="582" text-anchor="middle" font-size="12">1000</text>
<line class="grid" x1="194.44" y1="50" x2="194.44" y2="560"/>
<text x="194.44" y="582" text-anchor="middle" font-size="12">2000</text>
<line class="grid" x1="283.89" y1="50" x2="283.89" y2="560"/>
<text x="283.89" y="582" text-anchor="middle" font-size="12">3000</text>
<line class="grid" x1="373.33" y1="50" x2="373.33" y2="560"/>
<text x="373.33" y="582" text-anchor="middle" font-size="12">4000</text>
<line class="grid" x1="462.78" y1="50" x2="462.78" y2="560"/>
<text x="462.78" y="582" text-anchor="middle" font-size="12">5000</text>
<line class="grid" x1="552.22" y1="50" x2="552.22" y2="560"/>
<text x="552.22" y="582" text-anchor="middle" font-size="12">6000</text>
<line class="grid" x1="641.67" y1="50" x2="641.67" y2="560"/>
<text x="641.67" y="582" text-anchor="middle" font-size="12">7000</text>
<line class="grid" x1="731.11" y1="50" x2="731.11" y2="560"/>
<text x="731.11" y="582" text-anchor="middle" font-size="12">8000</text>
<line class="grid" x1="820.56" y1="50" x2="820.56" y2="560"/>
<text x="820.56" y="582" text-anchor="middle" font-size="12">9000</text>
<line class="grid" x1="910.00" y1="50" x2="910.00" y2="560"/>
<text x="910.00" y="582" text-anchor="middle" font-size="12">10000</text>
<line class="axis" x1="105" y1="560" x2="910" y2="560"/>
<line class="axis" x1="105" y1="50" x2="105" y2="560"/>
<polyline class="line" stroke="#2563eb" points="105.00,527.97 194.44,498.84 283.89,469.30 373.33,442.43 462.78,412.02 552.22,381.00 641.67,347.61 731.11,322.64 820.56,289.21 910.00,256.82"/>
<circle class="dot" fill="#2563eb" cx="105.00" cy="527.97" r="3.5"/>
<circle class="dot" fill="#2563eb" cx="194.44" cy="498.84" r="3.5"/>
<circle class="dot" fill="#2563eb" cx="283.89" cy="469.30" r="3.5"/>
<circle class="dot" fill="#2563eb" cx="373.33" cy="442.43" r="3.5"/>
<circle class="dot" fill="#2563eb" cx="462.78" cy="412.02" r="3.5"/>
<circle class="dot" fill="#2563eb" cx="552.22" cy="381.00" r="3.5"/>
<circle class="dot" fill="#2563eb" cx="641.67" cy="347.61" r="3.5"/>
<circle class="dot" fill="#2563eb" cx="731.11" cy="322.64" r="3.5"/>
<circle class="dot" fill="#2563eb" cx="820.56" cy="289.21" r="3.5"/>
<circle class="dot" fill="#2563eb" cx="910.00" cy="256.82" r="3.5"/>
<polyline class="fit" stroke="#2563eb" points="105.00,529.96 910.00,259.61"/>
<line x1="930" y1="60" x2="962" y2="60" stroke="#2563eb" stroke-width="3"/>
<text x="970" y="64" font-size="12">leap_avx2</text>
<polyline class="line" stroke="#dc2626" points="105.00,527.60 194.44,499.80 283.89,469.57 373.33,440.84 462.78,411.86 552.22,380.03 641.67,346.74 731.11,321.10 820.56,286.36 910.00,258.46"/>
<circle class="dot" fill="#dc2626" cx="105.00" cy="527.60" r="3.5"/>
<circle class="dot" fill="#dc2626" cx="194.44" cy="499.80" r="3.5"/>
<circle class="dot" fill="#dc2626" cx="283.89" cy="469.57" r="3.5"/>
<circle class="dot" fill="#dc2626" cx="373.33" cy="440.84" r="3.5"/>
<circle class="dot" fill="#dc2626" cx="462.78" cy="411.86" r="3.5"/>
<circle class="dot" fill="#dc2626" cx="552.22" cy="380.03" r="3.5"/>
<circle class="dot" fill="#dc2626" cx="641.67" cy="346.74" r="3.5"/>
<circle class="dot" fill="#dc2626" cx="731.11" cy="321.10" r="3.5"/>
<circle class="dot" fill="#dc2626" cx="820.56" cy="286.36" r="3.5"/>
<circle class="dot" fill="#dc2626" cx="910.00" cy="258.46" r="3.5"/>
<polyline class="fit" stroke="#dc2626" points="105.00,529.86 910.00,258.61"/>
<line x1="930" y1="88" x2="962" y2="88" stroke="#dc2626" stroke-width="3"/>
<text x="970" y="92" font-size="12">leap_avx512</text>
<polyline class="line" stroke="#059669" points="105.00,541.32 194.44,525.02 283.89,509.70 373.33,494.38 462.78,476.73 552.22,457.90 641.67,443.34 731.11,423.67 820.56,409.41 910.00,387.94"/>
<circle class="dot" fill="#059669" cx="105.00" cy="541.32" r="3.5"/>
<circle class="dot" fill="#059669" cx="194.44" cy="525.02" r="3.5"/>
<circle class="dot" fill="#059669" cx="283.89" cy="509.70" r="3.5"/>
<circle class="dot" fill="#059669" cx="373.33" cy="494.38" r="3.5"/>
<circle class="dot" fill="#059669" cx="462.78" cy="476.73" r="3.5"/>
<circle class="dot" fill="#059669" cx="552.22" cy="457.90" r="3.5"/>
<circle class="dot" fill="#059669" cx="641.67" cy="443.34" r="3.5"/>
<circle class="dot" fill="#059669" cx="731.11" cy="423.67" r="3.5"/>
<circle class="dot" fill="#059669" cx="820.56" cy="409.41" r="3.5"/>
<circle class="dot" fill="#059669" cx="910.00" cy="387.94" r="3.5"/>
<polyline class="fit" stroke="#059669" points="105.00,543.08 910.00,390.80"/>
<line x1="930" y1="116" x2="962" y2="116" stroke="#059669" stroke-width="3"/>
<text x="970" y="120" font-size="12">lv89</text>
<polyline class="line" stroke="#7c3aed" points="105.00,528.59 194.44,500.59 283.89,471.41 373.33,443.91 462.78,413.21 552.22,382.20 641.67,357.55 731.11,325.87 820.56,298.02 910.00,259.52"/>
<circle class="dot" fill="#7c3aed" cx="105.00" cy="528.59" r="3.5"/>
<circle class="dot" fill="#7c3aed" cx="194.44" cy="500.59" r="3.5"/>
<circle class="dot" fill="#7c3aed" cx="283.89" cy="471.41" r="3.5"/>
<circle class="dot" fill="#7c3aed" cx="373.33" cy="443.91" r="3.5"/>
<circle class="dot" fill="#7c3aed" cx="462.78" cy="413.21" r="3.5"/>
<circle class="dot" fill="#7c3aed" cx="552.22" cy="382.20" r="3.5"/>
<circle class="dot" fill="#7c3aed" cx="641.67" cy="357.55" r="3.5"/>
<circle class="dot" fill="#7c3aed" cx="731.11" cy="325.87" r="3.5"/>
<circle class="dot" fill="#7c3aed" cx="820.56" cy="298.02" r="3.5"/>
<circle class="dot" fill="#7c3aed" cx="910.00" cy="259.52" r="3.5"/>
<polyline class="fit" stroke="#7c3aed" points="105.00,530.56 910.00,265.61"/>
<line x1="930" y1="144" x2="962" y2="144" stroke="#7c3aed" stroke-width="3"/>
<text x="970" y="148" font-size="12">miniwfa</text>
<polyline class="line" stroke="#ea580c" points="105.00,515.20 194.44,467.30 283.89,421.12 373.33,378.56 462.78,341.04 552.22,290.34 641.67,254.41 731.11,205.07 820.56,163.06 910.00,96.36"/>
<circle class="dot" fill="#ea580c" cx="105.00" cy="515.20" r="3.5"/>
<circle class="dot" fill="#ea580c" cx="194.44" cy="467.30" r="3.5"/>
<circle class="dot" fill="#ea580c" cx="283.89" cy="421.12" r="3.5"/>
<circle class="dot" fill="#ea580c" cx="373.33" cy="378.56" r="3.5"/>
<circle class="dot" fill="#ea580c" cx="462.78" cy="341.04" r="3.5"/>
<circle class="dot" fill="#ea580c" cx="552.22" cy="290.34" r="3.5"/>
<circle class="dot" fill="#ea580c" cx="641.67" cy="254.41" r="3.5"/>
<circle class="dot" fill="#ea580c" cx="731.11" cy="205.07" r="3.5"/>
<circle class="dot" fill="#ea580c" cx="820.56" cy="163.06" r="3.5"/>
<circle class="dot" fill="#ea580c" cx="910.00" cy="96.36" r="3.5"/>
<polyline class="fit" stroke="#ea580c" points="105.00,515.14 910.00,111.36"/>
<line x1="930" y1="172" x2="962" y2="172" stroke="#ea580c" stroke-width="3"/>
<text x="970" y="176" font-size="12">wfa2_fresh</text>
<polyline class="line" stroke="#0891b2" points="105.00,533.87 194.44,507.82 283.89,482.79 373.33,455.06 462.78,432.21 552.22,405.52 641.67,378.99 731.11,356.26 820.56,330.62 910.00,297.05"/>
<circle class="dot" fill="#0891b2" cx="105.00" cy="533.87" r="3.5"/>
<circle class="dot" fill="#0891b2" cx="194.44" cy="507.82" r="3.5"/>
<circle class="dot" fill="#0891b2" cx="283.89" cy="482.79" r="3.5"/>
<circle class="dot" fill="#0891b2" cx="373.33" cy="455.06" r="3.5"/>
<circle class="dot" fill="#0891b2" cx="462.78" cy="432.21" r="3.5"/>
<circle class="dot" fill="#0891b2" cx="552.22" cy="405.52" r="3.5"/>
<circle class="dot" fill="#0891b2" cx="641.67" cy="378.99" r="3.5"/>
<circle class="dot" fill="#0891b2" cx="731.11" cy="356.26" r="3.5"/>
<circle class="dot" fill="#0891b2" cx="820.56" cy="330.62" r="3.5"/>
<circle class="dot" fill="#0891b2" cx="910.00" cy="297.05" r="3.5"/>
<polyline class="fit" stroke="#0891b2" points="105.00,534.19 910.00,301.85"/>
<line x1="930" y1="200" x2="962" y2="200" stroke="#0891b2" stroke-width="3"/>
<text x="970" y="204" font-size="12">wfa2_reuse</text>
<text x="560.0" y="614" text-anchor="middle" font-size="14">pairs per true_ed group, k=4</text>
<text x="20" y="320.0" transform="rotate(-90 20 320.0)" text-anchor="middle" font-size="14">total_cpu_seconds - fitted intercept</text>
</svg>