<svg xmlns="http://www.w3.org/2000/svg" width="1120" height="640" viewBox="0 0 1120 640">
<rect width="100%" height="100%" fill="white"/>
<style>text{font-family:Arial,Helvetica,sans-serif;fill:#111}.grid{stroke:#ddd;stroke-width:1}.axis{stroke:#111;stroke-width:1.5}.line{fill:none;stroke-width:2.5}.fit{fill:none;stroke-width:1.8;stroke-dasharray:6 4}.dot{stroke:white;stroke-width:1}</style>
<text x="560.0" y="30" text-anchor="middle" font-size="18" font-weight="700">Fixed k=3: total CPU time after subtracting fitted intercept</text>
<line class="grid" x1="105" y1="560.00" x2="910" y2="560.00"/>
<text x="95" y="564.00" text-anchor="end" font-size="12">0.00000</text>
<line class="grid" x1="105" y1="458.00" x2="910" y2="458.00"/>
<text x="95" y="462.00" text-anchor="end" font-size="12">0.02439</text>
<line class="grid" x1="105" y1="356.00" x2="910" y2="356.00"/>
<text x="95" y="360.00" text-anchor="end" font-size="12">0.04878</text>
<line class="grid" x1="105" y1="254.00" x2="910" y2="254.00"/>
<text x="95" y="258.00" text-anchor="end" font-size="12">0.07317</text>
<line class="grid" x1="105" y1="152.00" x2="910" y2="152.00"/>
<text x="95" y="156.00" text-anchor="end" font-size="12">0.09756</text>
<line class="grid" x1="105" y1="50.00" x2="910" y2="50.00"/>
<text x="95" y="54.00" text-anchor="end" font-size="12">0.12195</text>
<line class="grid" x1="105.00" y1="50" x2="105.00" y2="560"/>
<text x="105.00" y="582" text-anchor="middle" font-size="12">1000</text>
<line class="grid" x1="194.44" y1="50" x2="194.44" y2="560"/>
<text x="194.44" y="582" text-anchor="middle" font-size="12">2000</text>
<line class="grid" x1="283.89" y1="50" x2="283.89" y2="560"/>
<text x="283.89" y="582" text-anchor="middle" font-size="12">3000</text>
<line class="grid" x1="373.33" y1="50" x2="373.33" y2="560"/>
<text x="373.33" y="582" text-anchor="middle" font-size="12">4000</text>
<line class="grid" x1="462.78" y1="50" x2="462.78" y2="560"/>
<text x="462.78" y="582" text-anchor="middle" font-size="12">5000</text>
<line class="grid" x1="552.22" y1="50" x2="552.22" y2="560"/>
<text x="552.22" y="582" text-anchor="middle" font-size="12">6000</text>
<line class="grid" x1="641.67" y1="50" x2="641.67" y2="560"/>
<text x="641.67" y="582" text-anchor="middle" font-size="12">7000</text>
<line class="grid" x1="731.11" y1="50" x2="731.11" y2="560"/>
<text x="731.11" y="582" text-anchor="middle" font-size="12">8000</text>
<line class="grid" x1="820.56" y1="50" x2="820.56" y2="560"/>
<text x="820.56" y="582" text-anchor="middle" font-size="12">9000</text>
<line class="grid" x1="910.00" y1="50" x2="910.00" y2="560"/>
<text x="910.00" y="582" text-anchor="middle" font-size="12">10000</text>
<line class="axis" x1="105" y1="560" x2="910" y2="560"/>
<line class="axis" x1="105" y1="50" x2="105" y2="560"/>
<polyline class="line" stroke="#2563eb" points="105.00,540.26 194.44,514.68 283.89,488.77 373.33,446.83 462.78,421.23 552.22,391.52 641.67,387.38 731.11,361.02 820.56,329.18 910.00,308.37"/>
<circle class="dot" fill="#2563eb" cx="105.00" cy="540.26" r="3.5"/>
<circle class="dot" fill="#2563eb" cx="194.44" cy="514.68" r="3.5"/>
<circle class="dot" fill="#2563eb" cx="283.89" cy="488.77" r="3.5"/>
<circle class="dot" fill="#2563eb" cx="373.33" cy="446.83" r="3.5"/>
<circle class="dot" fill="#2563eb" cx="462.78" cy="421.23" r="3.5"/>
<circle class="dot" fill="#2563eb" cx="552.22" cy="391.52" r="3.5"/>
<circle class="dot" fill="#2563eb" cx="641.67" cy="387.38" r="3.5"/>
<circle class="dot" fill="#2563eb" cx="731.11" cy="361.02" r="3.5"/>
<circle class="dot" fill="#2563eb" cx="820.56" cy="329.18" r="3.5"/>
<circle class="dot" fill="#2563eb" cx="910.00" cy="308.37" r="3.5"/>
<polyline class="fit" stroke="#2563eb" points="105.00,534.35 910.00,303.50"/>
<line x1="930" y1="60" x2="962" y2="60" stroke="#2563eb" stroke-width="3"/>
<text x="970" y="64" font-size="12">leap_avx2</text>
<polyline class="line" stroke="#dc2626" points="105.00,539.74 194.44,514.07 283.89,483.75 373.33,443.35 462.78,426.47 552.22,397.64 641.67,388.93 731.11,358.79 820.56,327.29 910.00,303.68"/>
<circle class="dot" fill="#dc2626" cx="105.00" cy="539.74" r="3.5"/>
<circle class="dot" fill="#dc2626" cx="194.44" cy="514.07" r="3.5"/>
<circle class="dot" fill="#dc2626" cx="283.89" cy="483.75" r="3.5"/>
<circle class="dot" fill="#dc2626" cx="373.33" cy="443.35" r="3.5"/>
<circle class="dot" fill="#dc2626" cx="462.78" cy="426.47" r="3.5"/>
<circle class="dot" fill="#dc2626" cx="552.22" cy="397.64" r="3.5"/>
<circle class="dot" fill="#dc2626" cx="641.67" cy="388.93" r="3.5"/>
<circle class="dot" fill="#dc2626" cx="731.11" cy="358.79" r="3.5"/>
<circle class="dot" fill="#dc2626" cx="820.56" cy="327.29" r="3.5"/>
<circle class="dot" fill="#dc2626" cx="910.00" cy="303.68" r="3.5"/>
<polyline class="fit" stroke="#dc2626" points="105.00,534.25 910.00,302.49"/>
<line x1="930" y1="88" x2="962" y2="88" stroke="#dc2626" stroke-width="3"/>
<text x="970" y="92" font-size="12">leap_avx512</text>
<polyline class="line" stroke="#059669" points="105.00,547.16 194.44,525.71 283.89,516.30 373.33,485.19 462.78,475.22 552.22,455.09 641.67,446.07 731.11,428.13 820.56,413.70 910.00,394.09"/>
<circle class="dot" fill="#059669" cx="105.00" cy="547.16" r="3.5"/>
<circle class="dot" fill="#059669" cx="194.44" cy="525.71" r="3.5"/>
<circle class="dot" fill="#059669" cx="283.89" cy="516.30" r="3.5"/>
<circle class="dot" fill="#059669" cx="373.33" cy="485.19" r="3.5"/>
<circle class="dot" fill="#059669" cx="462.78" cy="475.22" r="3.5"/>
<circle class="dot" fill="#059669" cx="552.22" cy="455.09" r="3.5"/>
<circle class="dot" fill="#059669" cx="641.67" cy="446.07" r="3.5"/>
<circle class="dot" fill="#059669" cx="731.11" cy="428.13" r="3.5"/>
<circle class="dot" fill="#059669" cx="820.56" cy="413.70" r="3.5"/>
<circle class="dot" fill="#059669" cx="910.00" cy="394.09" r="3.5"/>
<polyline class="fit" stroke="#059669" points="105.00,543.39 910.00,393.94"/>
<line x1="930" y1="116" x2="962" y2="116" stroke="#059669" stroke-width="3"/>
<text x="970" y="120" font-size="12">lv89</text>
<polyline class="line" stroke="#7c3aed" points="105.00,536.72 194.44,508.11 283.89,480.02 373.33,440.02 462.78,409.09 552.22,377.36 641.67,366.93 731.11,337.78 820.56,305.02 910.00,282.91"/>
<circle class="dot" fill="#7c3aed" cx="105.00" cy="536.72" r="3.5"/>
<circle class="dot" fill="#7c3aed" cx="194.44" cy="508.11" r="3.5"/>
<circle class="dot" fill="#7c3aed" cx="283.89" cy="480.02" r="3.5"/>
<circle class="dot" fill="#7c3aed" cx="373.33" cy="440.02" r="3.5"/>
<circle class="dot" fill="#7c3aed" cx="462.78" cy="409.09" r="3.5"/>
<circle class="dot" fill="#7c3aed" cx="552.22" cy="377.36" r="3.5"/>
<circle class="dot" fill="#7c3aed" cx="641.67" cy="366.93" r="3.5"/>
<circle class="dot" fill="#7c3aed" cx="731.11" cy="337.78" r="3.5"/>
<circle class="dot" fill="#7c3aed" cx="820.56" cy="305.02" r="3.5"/>
<circle class="dot" fill="#7c3aed" cx="910.00" cy="282.91" r="3.5"/>
<polyline class="fit" stroke="#7c3aed" points="105.00,531.71 910.00,277.08"/>
<line x1="930" y1="144" x2="962" y2="144" stroke="#7c3aed" stroke-width="3"/>
<text x="970" y="148" font-size="12">miniwfa</text>
<polyline class="line" stroke="#ea580c" points="105.00,527.45 194.44,467.72 283.89,426.97 373.33,354.42 462.78,325.38 552.22,254.55 641.67,248.66 731.11,189.08 820.56,150.77 910.00,96.36"/>
<circle class="dot" fill="#ea580c" cx="105.00" cy="527.45" r="3.5"/>
<circle class="dot" fill="#ea580c" cx="194.44" cy="467.72" r="3.5"/>
<circle class="dot" fill="#ea580c" cx="283.89" cy="426.97" r="3.5"/>
<circle class="dot" fill="#ea580c" cx="373.33" cy="354.42" r="3.5"/>
<circle class="dot" fill="#ea580c" cx="462.78" cy="325.38" r="3.5"/>
<circle class="dot" fill="#ea580c" cx="552.22" cy="254.55" r="3.5"/>
<circle class="dot" fill="#ea580c" cx="641.67" cy="248.66" r="3.5"/>
<circle class="dot" fill="#ea580c" cx="731.11" cy="189.08" r="3.5"/>
<circle class="dot" fill="#ea580c" cx="820.56" cy="150.77" r="3.5"/>
<circle class="dot" fill="#ea580c" cx="910.00" cy="96.36" r="3.5"/>
<polyline class="fit" stroke="#ea580c" points="105.00,513.48 910.00,94.79"/>
<line x1="930" y1="172" x2="962" y2="172" stroke="#ea580c" stroke-width="3"/>
<text x="970" y="176" font-size="12">wfa2_fresh</text>
<polyline class="line" stroke="#0891b2" points="105.00,538.09 194.44,507.91 283.89,489.46 373.33,450.62 462.78,425.41 552.22,387.33 641.67,382.54 731.11,354.83 820.56,328.77 910.00,301.19"/>
<circle class="dot" fill="#0891b2" cx="105.00" cy="538.09" r="3.5"/>
<circle class="dot" fill="#0891b2" cx="194.44" cy="507.91" r="3.5"/>
<circle class="dot" fill="#0891b2" cx="283.89" cy="489.46" r="3.5"/>
<circle class="dot" fill="#0891b2" cx="373.33" cy="450.62" r="3.5"/>
<circle class="dot" fill="#0891b2" cx="462.78" cy="425.41" r="3.5"/>
<circle class="dot" fill="#0891b2" cx="552.22" cy="387.33" r="3.5"/>
<circle class="dot" fill="#0891b2" cx="641.67" cy="382.54" r="3.5"/>
<circle class="dot" fill="#0891b2" cx="731.11" cy="354.83" r="3.5"/>
<circle class="dot" fill="#0891b2" cx="820.56" cy="328.77" r="3.5"/>
<circle class="dot" fill="#0891b2" cx="910.00" cy="301.19" r="3.5"/>
<polyline class="fit" stroke="#0891b2" points="105.00,533.93 910.00,299.30"/>
<line x1="930" y1="200" x2="962" y2="200" stroke="#0891b2" stroke-width="3"/>
<text x="970" y="204" font-size="12">wfa2_reuse</text>
<text x="560.0" y="614" text-anchor="middle" font-size="14">pairs per true_ed group, k=3</text>
<text x="20" y="320.0" transform="rotate(-90 20 320.0)" text-anchor="middle" font-size="14">total_cpu_seconds - fitted intercept</text>
</svg>