<svg xmlns="http://www.w3.org/2000/svg" width="1120" height="640" viewBox="0 0 1120 640">
<rect width="100%" height="100%" fill="white"/>
<style>text{font-family:Arial,Helvetica,sans-serif;fill:#111}.grid{stroke:#ddd;stroke-width:1}.axis{stroke:#111;stroke-width:1.5}.line{fill:none;stroke-width:2.5}.fit{fill:none;stroke-width:1.8;stroke-dasharray:6 4}.dot{stroke:white;stroke-width:1}</style>
<text x="560.0" y="30" text-anchor="middle" font-size="18" font-weight="700">Fixed k=1: total CPU time after subtracting fitted intercept</text>
<line class="grid" x1="105" y1="560.00" x2="910" y2="560.00"/>
<text x="95" y="564.00" text-anchor="end" font-size="12">0.00000</text>
<line class="grid" x1="105" y1="458.00" x2="910" y2="458.00"/>
<text x="95" y="462.00" text-anchor="end" font-size="12">0.03005</text>
<line class="grid" x1="105" y1="356.00" x2="910" y2="356.00"/>
<text x="95" y="360.00" text-anchor="end" font-size="12">0.06010</text>
<line class="grid" x1="105" y1="254.00" x2="910" y2="254.00"/>
<text x="95" y="258.00" text-anchor="end" font-size="12">0.09016</text>
<line class="grid" x1="105" y1="152.00" x2="910" y2="152.00"/>
<text x="95" y="156.00" text-anchor="end" font-size="12">0.12021</text>
<line class="grid" x1="105" y1="50.00" x2="910" y2="50.00"/>
<text x="95" y="54.00" text-anchor="end" font-size="12">0.15026</text>
<line class="grid" x1="105.00" y1="50" x2="105.00" y2="560"/>
<text x="105.00" y="582" text-anchor="middle" font-size="12">1000</text>
<line class="grid" x1="194.44" y1="50" x2="194.44" y2="560"/>
<text x="194.44" y="582" text-anchor="middle" font-size="12">2000</text>
<line class="grid" x1="283.89" y1="50" x2="283.89" y2="560"/>
<text x="283.89" y="582" text-anchor="middle" font-size="12">3000</text>
<line class="grid" x1="373.33" y1="50" x2="373.33" y2="560"/>
<text x="373.33" y="582" text-anchor="middle" font-size="12">4000</text>
<line class="grid" x1="462.78" y1="50" x2="462.78" y2="560"/>
<text x="462.78" y="582" text-anchor="middle" font-size="12">5000</text>
<line class="grid" x1="552.22" y1="50" x2="552.22" y2="560"/>
<text x="552.22" y="582" text-anchor="middle" font-size="12">6000</text>
<line class="grid" x1="641.67" y1="50" x2="641.67" y2="560"/>
<text x="641.67" y="582" text-anchor="middle" font-size="12">7000</text>
<line class="grid" x1="731.11" y1="50" x2="731.11" y2="560"/>
<text x="731.11" y="582" text-anchor="middle" font-size="12">8000</text>
<line class="grid" x1="820.56" y1="50" x2="820.56" y2="560"/>
<text x="820.56" y="582" text-anchor="middle" font-size="12">9000</text>
<line class="grid" x1="910.00" y1="50" x2="910.00" y2="560"/>
<text x="910.00" y="582" text-anchor="middle" font-size="12">10000</text>
<line class="axis" x1="105" y1="560" x2="910" y2="560"/>
<line class="axis" x1="105" y1="50" x2="105" y2="560"/>
<polyline class="line" stroke="#2563eb" points="105.00,547.18 194.44,533.29 283.89,518.69 373.33,505.27 462.78,492.22 552.22,475.78 641.67,465.14 731.11,449.16 820.56,438.20 910.00,424.92"/>
<circle class="dot" fill="#2563eb" cx="105.00" cy="547.18" r="3.5"/>
<circle class="dot" fill="#2563eb" cx="194.44" cy="533.29" r="3.5"/>
<circle class="dot" fill="#2563eb" cx="283.89" cy="518.69" r="3.5"/>
<circle class="dot" fill="#2563eb" cx="373.33" cy="505.27" r="3.5"/>
<circle class="dot" fill="#2563eb" cx="462.78" cy="492.22" r="3.5"/>
<circle class="dot" fill="#2563eb" cx="552.22" cy="475.78" r="3.5"/>
<circle class="dot" fill="#2563eb" cx="641.67" cy="465.14" r="3.5"/>
<circle class="dot" fill="#2563eb" cx="731.11" cy="449.16" r="3.5"/>
<circle class="dot" fill="#2563eb" cx="820.56" cy="438.20" r="3.5"/>
<circle class="dot" fill="#2563eb" cx="910.00" cy="424.92" r="3.5"/>
<polyline class="fit" stroke="#2563eb" points="105.00,546.36 910.00,423.61"/>
<line x1="930" y1="60" x2="962" y2="60" stroke="#2563eb" stroke-width="3"/>
<text x="970" y="64" font-size="12">leap_avx2</text>
<polyline class="line" stroke="#dc2626" points="105.00,546.58 194.44,533.86 283.89,520.97 373.33,508.17 462.78,494.45 552.22,479.90 641.67,469.37 731.11,452.79 820.56,441.56 910.00,430.02"/>
<circle class="dot" fill="#dc2626" cx="105.00" cy="546.58" r="3.5"/>
<circle class="dot" fill="#dc2626" cx="194.44" cy="533.86" r="3.5"/>
<circle class="dot" fill="#dc2626" cx="283.89" cy="520.97" r="3.5"/>
<circle class="dot" fill="#dc2626" cx="373.33" cy="508.17" r="3.5"/>
<circle class="dot" fill="#dc2626" cx="462.78" cy="494.45" r="3.5"/>
<circle class="dot" fill="#dc2626" cx="552.22" cy="479.90" r="3.5"/>
<circle class="dot" fill="#dc2626" cx="641.67" cy="469.37" r="3.5"/>
<circle class="dot" fill="#dc2626" cx="731.11" cy="452.79" r="3.5"/>
<circle class="dot" fill="#dc2626" cx="820.56" cy="441.56" r="3.5"/>
<circle class="dot" fill="#dc2626" cx="910.00" cy="430.02" r="3.5"/>
<polyline class="fit" stroke="#dc2626" points="105.00,546.87 910.00,428.67"/>
<line x1="930" y1="88" x2="962" y2="88" stroke="#dc2626" stroke-width="3"/>
<text x="970" y="92" font-size="12">leap_avx512</text>
<polyline class="line" stroke="#059669" points="105.00,543.38 194.44,528.07 283.89,512.27 373.33,497.17 462.78,453.80 552.22,462.67 641.67,449.83 731.11,432.23 820.56,386.85 910.00,401.84"/>
<circle class="dot" fill="#059669" cx="105.00" cy="543.38" r="3.5"/>
<circle class="dot" fill="#059669" cx="194.44" cy="528.07" r="3.5"/>
<circle class="dot" fill="#059669" cx="283.89" cy="512.27" r="3.5"/>
<circle class="dot" fill="#059669" cx="373.33" cy="497.17" r="3.5"/>
<circle class="dot" fill="#059669" cx="462.78" cy="453.80" r="3.5"/>
<circle class="dot" fill="#059669" cx="552.22" cy="462.67" r="3.5"/>
<circle class="dot" fill="#059669" cx="641.67" cy="449.83" r="3.5"/>
<circle class="dot" fill="#059669" cx="731.11" cy="432.23" r="3.5"/>
<circle class="dot" fill="#059669" cx="820.56" cy="386.85" r="3.5"/>
<circle class="dot" fill="#059669" cx="910.00" cy="401.84" r="3.5"/>
<polyline class="fit" stroke="#059669" points="105.00,543.06 910.00,390.56"/>
<line x1="930" y1="116" x2="962" y2="116" stroke="#059669" stroke-width="3"/>
<text x="970" y="120" font-size="12">lv89</text>
<polyline class="line" stroke="#7c3aed" points="105.00,540.23 194.44,520.13 283.89,501.57 373.33,482.06 462.78,461.91 552.22,444.47 641.67,423.95 731.11,404.44 820.56,382.47 910.00,364.48"/>
<circle class="dot" fill="#7c3aed" cx="105.00" cy="540.23" r="3.5"/>
<circle class="dot" fill="#7c3aed" cx="194.44" cy="520.13" r="3.5"/>
<circle class="dot" fill="#7c3aed" cx="283.89" cy="501.57" r="3.5"/>
<circle class="dot" fill="#7c3aed" cx="373.33" cy="482.06" r="3.5"/>
<circle class="dot" fill="#7c3aed" cx="462.78" cy="461.91" r="3.5"/>
<circle class="dot" fill="#7c3aed" cx="552.22" cy="444.47" r="3.5"/>
<circle class="dot" fill="#7c3aed" cx="641.67" cy="423.95" r="3.5"/>
<circle class="dot" fill="#7c3aed" cx="731.11" cy="404.44" r="3.5"/>
<circle class="dot" fill="#7c3aed" cx="820.56" cy="382.47" r="3.5"/>
<circle class="dot" fill="#7c3aed" cx="910.00" cy="364.48" r="3.5"/>
<polyline class="fit" stroke="#7c3aed" points="105.00,540.47 910.00,364.68"/>
<line x1="930" y1="144" x2="962" y2="144" stroke="#7c3aed" stroke-width="3"/>
<text x="970" y="148" font-size="12">miniwfa</text>
<polyline class="line" stroke="#ea580c" points="105.00,513.89 194.44,474.03 283.89,434.95 373.33,370.85 462.78,332.75 552.22,317.13 641.67,289.34 731.11,186.71 820.56,96.36 910.00,169.67"/>
<circle class="dot" fill="#ea580c" cx="105.00" cy="513.89" r="3.5"/>
<circle class="dot" fill="#ea580c" cx="194.44" cy="474.03" r="3.5"/>
<circle class="dot" fill="#ea580c" cx="283.89" cy="434.95" r="3.5"/>
<circle class="dot" fill="#ea580c" cx="373.33" cy="370.85" r="3.5"/>
<circle class="dot" fill="#ea580c" cx="462.78" cy="332.75" r="3.5"/>
<circle class="dot" fill="#ea580c" cx="552.22" cy="317.13" r="3.5"/>
<circle class="dot" fill="#ea580c" cx="641.67" cy="289.34" r="3.5"/>
<circle class="dot" fill="#ea580c" cx="731.11" cy="186.71" r="3.5"/>
<circle class="dot" fill="#ea580c" cx="820.56" cy="96.36" r="3.5"/>
<circle class="dot" fill="#ea580c" cx="910.00" cy="169.67" r="3.5"/>
<polyline class="fit" stroke="#ea580c" points="105.00,516.10 910.00,121.03"/>
<line x1="930" y1="172" x2="962" y2="172" stroke="#ea580c" stroke-width="3"/>
<text x="970" y="176" font-size="12">wfa2_fresh</text>
<polyline class="line" stroke="#0891b2" points="105.00,538.74 194.44,516.31 283.89,494.49 373.33,470.92 462.78,449.45 552.22,424.11 641.67,404.90 731.11,383.90 820.56,361.98 910.00,339.96"/>
<circle class="dot" fill="#0891b2" cx="105.00" cy="538.74" r="3.5"/>
<circle class="dot" fill="#0891b2" cx="194.44" cy="516.31" r="3.5"/>
<circle class="dot" fill="#0891b2" cx="283.89" cy="494.49" r="3.5"/>
<circle class="dot" fill="#0891b2" cx="373.33" cy="470.92" r="3.5"/>
<circle class="dot" fill="#0891b2" cx="462.78" cy="449.45" r="3.5"/>
<circle class="dot" fill="#0891b2" cx="552.22" cy="424.11" r="3.5"/>
<circle class="dot" fill="#0891b2" cx="641.67" cy="404.90" r="3.5"/>
<circle class="dot" fill="#0891b2" cx="731.11" cy="383.90" r="3.5"/>
<circle class="dot" fill="#0891b2" cx="820.56" cy="361.98" r="3.5"/>
<circle class="dot" fill="#0891b2" cx="910.00" cy="339.96" r="3.5"/>
<polyline class="fit" stroke="#0891b2" points="105.00,537.90 910.00,339.05"/>
<line x1="930" y1="200" x2="962" y2="200" stroke="#0891b2" stroke-width="3"/>
<text x="970" y="204" font-size="12">wfa2_reuse</text>
<text x="560.0" y="614" text-anchor="middle" font-size="14">pairs per true_ed group, k=1</text>
<text x="20" y="320.0" transform="rotate(-90 20 320.0)" text-anchor="middle" font-size="14">total_cpu_seconds - fitted intercept</text>
</svg>