<svg xmlns="http://www.w3.org/2000/svg" width="920" height="520" viewBox="0 0 920 520">
<rect width="100%" height="100%" fill="white"/>
<style>text{font-family:Arial,Helvetica,sans-serif;fill:#111} .grid{stroke:#ddd;stroke-width:1} .axis{stroke:#111;stroke-width:1.5} .line{fill:none;stroke:#2563eb;stroke-width:3} .dot{fill:#2563eb}</style>
<text x="460.0" y="28" text-anchor="middle" font-size="18" font-weight="700">leap_avx512 total CPU time vs pairs-per-ed</text>
<line class="grid" x1="90" y1="445.00" x2="880" y2="445.00"/>
<text x="80" y="449.00" text-anchor="end" font-size="12">0.0000</text>
<line class="grid" x1="90" y1="365.00" x2="880" y2="365.00"/>
<text x="80" y="369.00" text-anchor="end" font-size="12">0.0674</text>
<line class="grid" x1="90" y1="285.00" x2="880" y2="285.00"/>
<text x="80" y="289.00" text-anchor="end" font-size="12">0.1347</text>
<line class="grid" x1="90" y1="205.00" x2="880" y2="205.00"/>
<text x="80" y="209.00" text-anchor="end" font-size="12">0.2021</text>
<line class="grid" x1="90" y1="125.00" x2="880" y2="125.00"/>
<text x="80" y="129.00" text-anchor="end" font-size="12">0.2694</text>
<line class="grid" x1="90" y1="45.00" x2="880" y2="45.00"/>
<text x="80" y="49.00" text-anchor="end" font-size="12">0.3368</text>
<line class="grid" x1="90.00" y1="45" x2="90.00" y2="445"/>
<text x="90.00" y="467" text-anchor="middle" font-size="12">1000</text>
<line class="grid" x1="177.78" y1="45" x2="177.78" y2="445"/>
<text x="177.78" y="467" text-anchor="middle" font-size="12">2000</text>
<line class="grid" x1="265.56" y1="45" x2="265.56" y2="445"/>
<text x="265.56" y="467" text-anchor="middle" font-size="12">3000</text>
<line class="grid" x1="353.33" y1="45" x2="353.33" y2="445"/>
<text x="353.33" y="467" text-anchor="middle" font-size="12">4000</text>
<line class="grid" x1="441.11" y1="45" x2="441.11" y2="445"/>
<text x="441.11" y="467" text-anchor="middle" font-size="12">5000</text>
<line class="grid" x1="528.89" y1="45" x2="528.89" y2="445"/>
<text x="528.89" y="467" text-anchor="middle" font-size="12">6000</text>
<line class="grid" x1="616.67" y1="45" x2="616.67" y2="445"/>
<text x="616.67" y="467" text-anchor="middle" font-size="12">7000</text>
<line class="grid" x1="704.44" y1="45" x2="704.44" y2="445"/>
<text x="704.44" y="467" text-anchor="middle" font-size="12">8000</text>
<line class="grid" x1="792.22" y1="45" x2="792.22" y2="445"/>
<text x="792.22" y="467" text-anchor="middle" font-size="12">9000</text>
<line class="grid" x1="880.00" y1="45" x2="880.00" y2="445"/>
<text x="880.00" y="467" text-anchor="middle" font-size="12">10000</text>
<line class="axis" x1="90" y1="445" x2="880" y2="445"/>
<line class="axis" x1="90" y1="45" x2="90" y2="445"/>
<polyline class="line" points="90.00,408.19 177.78,369.68 265.56,334.27 353.33,293.89 441.11,261.34 528.89,226.15 616.67,186.87 704.44,151.12 792.22,109.94 880.00,81.36"/>
<circle class="dot" cx="90.00" cy="408.19" r="4"/>
<text x="90.00" y="398.19" text-anchor="middle" font-size="11">0.0310s</text>
<circle class="dot" cx="177.78" cy="369.68" r="4"/>
<text x="177.78" y="359.68" text-anchor="middle" font-size="11">0.0634s</text>
<circle class="dot" cx="265.56" cy="334.27" r="4"/>
<text x="265.56" y="324.27" text-anchor="middle" font-size="11">0.0932s</text>
<circle class="dot" cx="353.33" cy="293.89" r="4"/>
<text x="353.33" y="283.89" text-anchor="middle" font-size="11">0.1272s</text>
<circle class="dot" cx="441.11" cy="261.34" r="4"/>
<text x="441.11" y="251.34" text-anchor="middle" font-size="11">0.1546s</text>
<circle class="dot" cx="528.89" cy="226.15" r="4"/>
<text x="528.89" y="216.15" text-anchor="middle" font-size="11">0.1843s</text>
<circle class="dot" cx="616.67" cy="186.87" r="4"/>
<text x="616.67" y="176.87" text-anchor="middle" font-size="11">0.2173s</text>
<circle class="dot" cx="704.44" cy="151.12" r="4"/>
<text x="704.44" y="141.12" text-anchor="middle" font-size="11">0.2474s</text>
<circle class="dot" cx="792.22" cy="109.94" r="4"/>
<text x="792.22" y="99.94" text-anchor="middle" font-size="11">0.2821s</text>
<circle class="dot" cx="880.00" cy="81.36" r="4"/>
<text x="880.00" y="71.36" text-anchor="middle" font-size="11">0.3062s</text>
<text x="460.0" y="496" text-anchor="middle" font-size="14">pairs per true_ed group</text>
<text x="20" y="260.0" transform="rotate(-90 20 260.0)" text-anchor="middle" font-size="14">sum total_cpu_ns over k=1..5 (seconds)</text>
</svg>