<svg xmlns="http://www.w3.org/2000/svg" width="1120" height="640" viewBox="0 0 1120 640">
<rect width="100%" height="100%" fill="white"/>
<style>text{font-family:Arial,Helvetica,sans-serif;fill:#111}.grid{stroke:#ddd;stroke-width:1}.axis{stroke:#111;stroke-width:1.5}.line{fill:none;stroke-width:2.5}.fit{fill:none;stroke-width:1.8;stroke-dasharray:6 4}.dot{stroke:white;stroke-width:1}</style>
<text x="560.0" y="30" text-anchor="middle" font-size="18" font-weight="700">Fixed k=5: total CPU time after subtracting fitted intercept</text>
<line class="grid" x1="105" y1="560.00" x2="910" y2="560.00"/>
<text x="95" y="564.00" text-anchor="end" font-size="12">0.00000</text>
<line class="grid" x1="105" y1="458.00" x2="910" y2="458.00"/>
<text x="95" y="462.00" text-anchor="end" font-size="12">0.02558</text>
<line class="grid" x1="105" y1="356.00" x2="910" y2="356.00"/>
<text x="95" y="360.00" text-anchor="end" font-size="12">0.05115</text>
<line class="grid" x1="105" y1="254.00" x2="910" y2="254.00"/>
<text x="95" y="258.00" text-anchor="end" font-size="12">0.07673</text>
<line class="grid" x1="105" y1="152.00" x2="910" y2="152.00"/>
<text x="95" y="156.00" text-anchor="end" font-size="12">0.10230</text>
<line class="grid" x1="105" y1="50.00" x2="910" y2="50.00"/>
<text x="95" y="54.00" text-anchor="end" font-size="12">0.12788</text>
<line class="grid" x1="105.00" y1="50" x2="105.00" y2="560"/>
<text x="105.00" y="582" text-anchor="middle" font-size="12">1000</text>
<line class="grid" x1="194.44" y1="50" x2="194.44" y2="560"/>
<text x="194.44" y="582" text-anchor="middle" font-size="12">2000</text>
<line class="grid" x1="283.89" y1="50" x2="283.89" y2="560"/>
<text x="283.89" y="582" text-anchor="middle" font-size="12">3000</text>
<line class="grid" x1="373.33" y1="50" x2="373.33" y2="560"/>
<text x="373.33" y="582" text-anchor="middle" font-size="12">4000</text>
<line class="grid" x1="462.78" y1="50" x2="462.78" y2="560"/>
<text x="462.78" y="582" text-anchor="middle" font-size="12">5000</text>
<line class="grid" x1="552.22" y1="50" x2="552.22" y2="560"/>
<text x="552.22" y="582" text-anchor="middle" font-size="12">6000</text>
<line class="grid" x1="641.67" y1="50" x2="641.67" y2="560"/>
<text x="641.67" y="582" text-anchor="middle" font-size="12">7000</text>
<line class="grid" x1="731.11" y1="50" x2="731.11" y2="560"/>
<text x="731.11" y="582" text-anchor="middle" font-size="12">8000</text>
<line class="grid" x1="820.56" y1="50" x2="820.56" y2="560"/>
<text x="820.56" y="582" text-anchor="middle" font-size="12">9000</text>
<line class="grid" x1="910.00" y1="50" x2="910.00" y2="560"/>
<text x="910.00" y="582" text-anchor="middle" font-size="12">10000</text>
<line class="axis" x1="105" y1="560" x2="910" y2="560"/>
<line class="axis" x1="105" y1="50" x2="105" y2="560"/>
<polyline class="line" stroke="#2563eb" points="105.00,525.09 194.44,490.64 283.89,455.04 373.33,425.10 462.78,384.03 552.22,353.79 641.67,320.37 731.11,287.74 820.56,252.98 910.00,209.11"/>
<circle class="dot" fill="#2563eb" cx="105.00" cy="525.09" r="3.5"/>
<circle class="dot" fill="#2563eb" cx="194.44" cy="490.64" r="3.5"/>
<circle class="dot" fill="#2563eb" cx="283.89" cy="455.04" r="3.5"/>
<circle class="dot" fill="#2563eb" cx="373.33" cy="425.10" r="3.5"/>
<circle class="dot" fill="#2563eb" cx="462.78" cy="384.03" r="3.5"/>
<circle class="dot" fill="#2563eb" cx="552.22" cy="353.79" r="3.5"/>
<circle class="dot" fill="#2563eb" cx="641.67" cy="320.37" r="3.5"/>
<circle class="dot" fill="#2563eb" cx="731.11" cy="287.74" r="3.5"/>
<circle class="dot" fill="#2563eb" cx="820.56" cy="252.98" r="3.5"/>
<circle class="dot" fill="#2563eb" cx="910.00" cy="209.11" r="3.5"/>
<polyline class="fit" stroke="#2563eb" points="105.00,525.53 910.00,215.25"/>
<line x1="930" y1="60" x2="962" y2="60" stroke="#2563eb" stroke-width="3"/>
<text x="970" y="64" font-size="12">leap_avx2</text>
<polyline class="line" stroke="#dc2626" points="105.00,530.06 194.44,486.39 283.89,452.43 373.33,424.17 462.78,392.62 552.22,358.49 641.67,311.61 731.11,290.00 820.56,250.80 910.00,215.56"/>
<circle class="dot" fill="#dc2626" cx="105.00" cy="530.06" r="3.5"/>
<circle class="dot" fill="#dc2626" cx="194.44" cy="486.39" r="3.5"/>
<circle class="dot" fill="#dc2626" cx="283.89" cy="452.43" r="3.5"/>
<circle class="dot" fill="#dc2626" cx="373.33" cy="424.17" r="3.5"/>
<circle class="dot" fill="#dc2626" cx="462.78" cy="392.62" r="3.5"/>
<circle class="dot" fill="#dc2626" cx="552.22" cy="358.49" r="3.5"/>
<circle class="dot" fill="#dc2626" cx="641.67" cy="311.61" r="3.5"/>
<circle class="dot" fill="#dc2626" cx="731.11" cy="290.00" r="3.5"/>
<circle class="dot" fill="#dc2626" cx="820.56" cy="250.80" r="3.5"/>
<circle class="dot" fill="#dc2626" cx="910.00" cy="215.56" r="3.5"/>
<polyline class="fit" stroke="#dc2626" points="105.00,525.68 910.00,216.75"/>
<line x1="930" y1="88" x2="962" y2="88" stroke="#dc2626" stroke-width="3"/>
<text x="970" y="92" font-size="12">leap_avx512</text>
<polyline class="line" stroke="#059669" points="105.00,542.35 194.44,525.88 283.89,508.61 373.33,492.62 462.78,474.07 552.22,453.75 641.67,441.13 731.11,414.57 820.56,406.45 910.00,390.08"/>
<circle class="dot" fill="#059669" cx="105.00" cy="542.35" r="3.5"/>
<circle class="dot" fill="#059669" cx="194.44" cy="525.88" r="3.5"/>
<circle class="dot" fill="#059669" cx="283.89" cy="508.61" r="3.5"/>
<circle class="dot" fill="#059669" cx="373.33" cy="492.62" r="3.5"/>
<circle class="dot" fill="#059669" cx="462.78" cy="474.07" r="3.5"/>
<circle class="dot" fill="#059669" cx="552.22" cy="453.75" r="3.5"/>
<circle class="dot" fill="#059669" cx="641.67" cy="441.13" r="3.5"/>
<circle class="dot" fill="#059669" cx="731.11" cy="414.57" r="3.5"/>
<circle class="dot" fill="#059669" cx="820.56" cy="406.45" r="3.5"/>
<circle class="dot" fill="#059669" cx="910.00" cy="390.08" r="3.5"/>
<polyline class="fit" stroke="#059669" points="105.00,542.72 910.00,387.18"/>
<line x1="930" y1="116" x2="962" y2="116" stroke="#059669" stroke-width="3"/>
<text x="970" y="120" font-size="12">lv89</text>
<polyline class="line" stroke="#7c3aed" points="105.00,528.68 194.44,498.82 283.89,467.50 373.33,434.59 462.78,407.72 552.22,377.00 641.67,344.34 731.11,313.14 820.56,283.28 910.00,250.90"/>
<circle class="dot" fill="#7c3aed" cx="105.00" cy="528.68" r="3.5"/>
<circle class="dot" fill="#7c3aed" cx="194.44" cy="498.82" r="3.5"/>
<circle class="dot" fill="#7c3aed" cx="283.89" cy="467.50" r="3.5"/>
<circle class="dot" fill="#7c3aed" cx="373.33" cy="434.59" r="3.5"/>
<circle class="dot" fill="#7c3aed" cx="462.78" cy="407.72" r="3.5"/>
<circle class="dot" fill="#7c3aed" cx="552.22" cy="377.00" r="3.5"/>
<circle class="dot" fill="#7c3aed" cx="641.67" cy="344.34" r="3.5"/>
<circle class="dot" fill="#7c3aed" cx="731.11" cy="313.14" r="3.5"/>
<circle class="dot" fill="#7c3aed" cx="820.56" cy="283.28" r="3.5"/>
<circle class="dot" fill="#7c3aed" cx="910.00" cy="250.90" r="3.5"/>
<polyline class="fit" stroke="#7c3aed" points="105.00,529.20 910.00,251.99"/>
<line x1="930" y1="144" x2="962" y2="144" stroke="#7c3aed" stroke-width="3"/>
<text x="970" y="148" font-size="12">miniwfa</text>
<polyline class="line" stroke="#ea580c" points="105.00,518.19 194.44,471.18 283.89,420.31 373.33,340.52 462.78,344.69 552.22,293.90 641.67,256.22 731.11,211.47 820.56,96.36 910.00,115.65"/>
<circle class="dot" fill="#ea580c" cx="105.00" cy="518.19" r="3.5"/>
<circle class="dot" fill="#ea580c" cx="194.44" cy="471.18" r="3.5"/>
<circle class="dot" fill="#ea580c" cx="283.89" cy="420.31" r="3.5"/>
<circle class="dot" fill="#ea580c" cx="373.33" cy="340.52" r="3.5"/>
<circle class="dot" fill="#ea580c" cx="462.78" cy="344.69" r="3.5"/>
<circle class="dot" fill="#ea580c" cx="552.22" cy="293.90" r="3.5"/>
<circle class="dot" fill="#ea580c" cx="641.67" cy="256.22" r="3.5"/>
<circle class="dot" fill="#ea580c" cx="731.11" cy="211.47" r="3.5"/>
<circle class="dot" fill="#ea580c" cx="820.56" cy="96.36" r="3.5"/>
<circle class="dot" fill="#ea580c" cx="910.00" cy="115.65" r="3.5"/>
<polyline class="fit" stroke="#ea580c" points="105.00,513.97 910.00,99.73"/>
<line x1="930" y1="172" x2="962" y2="172" stroke="#ea580c" stroke-width="3"/>
<text x="970" y="176" font-size="12">wfa2_fresh</text>
<polyline class="line" stroke="#0891b2" points="105.00,538.80 194.44,507.98 283.89,481.81 373.33,455.69 462.78,437.48 552.22,412.04 641.67,386.83 731.11,360.77 820.56,333.88 910.00,308.48"/>
<circle class="dot" fill="#0891b2" cx="105.00" cy="538.80" r="3.5"/>
<circle class="dot" fill="#0891b2" cx="194.44" cy="507.98" r="3.5"/>
<circle class="dot" fill="#0891b2" cx="283.89" cy="481.81" r="3.5"/>
<circle class="dot" fill="#0891b2" cx="373.33" cy="455.69" r="3.5"/>
<circle class="dot" fill="#0891b2" cx="462.78" cy="437.48" r="3.5"/>
<circle class="dot" fill="#0891b2" cx="552.22" cy="412.04" r="3.5"/>
<circle class="dot" fill="#0891b2" cx="641.67" cy="386.83" r="3.5"/>
<circle class="dot" fill="#0891b2" cx="731.11" cy="360.77" r="3.5"/>
<circle class="dot" fill="#0891b2" cx="820.56" cy="333.88" r="3.5"/>
<circle class="dot" fill="#0891b2" cx="910.00" cy="308.48" r="3.5"/>
<polyline class="fit" stroke="#0891b2" points="105.00,534.98 910.00,309.78"/>
<line x1="930" y1="200" x2="962" y2="200" stroke="#0891b2" stroke-width="3"/>
<text x="970" y="204" font-size="12">wfa2_reuse</text>
<text x="560.0" y="614" text-anchor="middle" font-size="14">pairs per true_ed group, k=5</text>
<text x="20" y="320.0" transform="rotate(-90 20 320.0)" text-anchor="middle" font-size="14">total_cpu_seconds - fitted intercept</text>
</svg>