<svg xmlns="http://www.w3.org/2000/svg" width="920" height="520" viewBox="0 0 920 520">
<rect width="100%" height="100%" fill="white"/>
<style>text{font-family:Arial,Helvetica,sans-serif;fill:#111} .grid{stroke:#ddd;stroke-width:1} .axis{stroke:#111;stroke-width:1.5} .line{fill:none;stroke:#2563eb;stroke-width:3} .dot{fill:#2563eb}</style>
<text x="460.0" y="28" text-anchor="middle" font-size="18" font-weight="700">leap_avx512 total CPU time vs pairs-per-ed (k=5)</text>
<line class="grid" x1="90" y1="445.00" x2="880" y2="445.00"/>
<text x="80" y="449.00" text-anchor="end" font-size="12">0.0000</text>
<line class="grid" x1="90" y1="365.00" x2="880" y2="365.00"/>
<text x="80" y="369.00" text-anchor="end" font-size="12">0.0193</text>
<line class="grid" x1="90" y1="285.00" x2="880" y2="285.00"/>
<text x="80" y="289.00" text-anchor="end" font-size="12">0.0385</text>
<line class="grid" x1="90" y1="205.00" x2="880" y2="205.00"/>
<text x="80" y="209.00" text-anchor="end" font-size="12">0.0578</text>
<line class="grid" x1="90" y1="125.00" x2="880" y2="125.00"/>
<text x="80" y="129.00" text-anchor="end" font-size="12">0.0770</text>
<line class="grid" x1="90" y1="45.00" x2="880" y2="45.00"/>
<text x="80" y="49.00" text-anchor="end" font-size="12">0.0963</text>
<line class="grid" x1="90.00" y1="45" x2="90.00" y2="445"/>
<text x="90.00" y="467" text-anchor="middle" font-size="12">1000</text>
<line class="grid" x1="177.78" y1="45" x2="177.78" y2="445"/>
<text x="177.78" y="467" text-anchor="middle" font-size="12">2000</text>
<line class="grid" x1="265.56" y1="45" x2="265.56" y2="445"/>
<text x="265.56" y="467" text-anchor="middle" font-size="12">3000</text>
<line class="grid" x1="353.33" y1="45" x2="353.33" y2="445"/>
<text x="353.33" y="467" text-anchor="middle" font-size="12">4000</text>
<line class="grid" x1="441.11" y1="45" x2="441.11" y2="445"/>
<text x="441.11" y="467" text-anchor="middle" font-size="12">5000</text>
<line class="grid" x1="528.89" y1="45" x2="528.89" y2="445"/>
<text x="528.89" y="467" text-anchor="middle" font-size="12">6000</text>
<line class="grid" x1="616.67" y1="45" x2="616.67" y2="445"/>
<text x="616.67" y="467" text-anchor="middle" font-size="12">7000</text>
<line class="grid" x1="704.44" y1="45" x2="704.44" y2="445"/>
<text x="704.44" y="467" text-anchor="middle" font-size="12">8000</text>
<line class="grid" x1="792.22" y1="45" x2="792.22" y2="445"/>
<text x="792.22" y="467" text-anchor="middle" font-size="12">9000</text>
<line class="grid" x1="880.00" y1="45" x2="880.00" y2="445"/>
<text x="880.00" y="467" text-anchor="middle" font-size="12">10000</text>
<line class="axis" x1="90" y1="445" x2="880" y2="445"/>
<line class="axis" x1="90" y1="45" x2="90" y2="445"/>
<polyline class="line" points="90.00,408.05 177.78,372.85 265.56,337.38 353.33,299.75 441.11,259.01 528.89,228.86 616.67,191.90 704.44,156.94 792.22,112.59 880.00,81.36"/>
<circle class="dot" cx="90.00" cy="408.05" r="4"/>
<text x="90.00" y="398.05" text-anchor="middle" font-size="11">0.0089s</text>
<circle class="dot" cx="177.78" cy="372.85" r="4"/>
<text x="177.78" y="362.85" text-anchor="middle" font-size="11">0.0174s</text>
<circle class="dot" cx="265.56" cy="337.38" r="4"/>
<text x="265.56" y="327.38" text-anchor="middle" font-size="11">0.0259s</text>
<circle class="dot" cx="353.33" cy="299.75" r="4"/>
<text x="353.33" y="289.75" text-anchor="middle" font-size="11">0.0350s</text>
<circle class="dot" cx="441.11" cy="259.01" r="4"/>
<text x="441.11" y="249.01" text-anchor="middle" font-size="11">0.0448s</text>
<circle class="dot" cx="528.89" cy="228.86" r="4"/>
<text x="528.89" y="218.86" text-anchor="middle" font-size="11">0.0520s</text>
<circle class="dot" cx="616.67" cy="191.90" r="4"/>
<text x="616.67" y="181.90" text-anchor="middle" font-size="11">0.0609s</text>
<circle class="dot" cx="704.44" cy="156.94" r="4"/>
<text x="704.44" y="146.94" text-anchor="middle" font-size="11">0.0694s</text>
<circle class="dot" cx="792.22" cy="112.59" r="4"/>
<text x="792.22" y="102.59" text-anchor="middle" font-size="11">0.0800s</text>
<circle class="dot" cx="880.00" cy="81.36" r="4"/>
<text x="880.00" y="71.36" text-anchor="middle" font-size="11">0.0875s</text>
<text x="460.0" y="496" text-anchor="middle" font-size="14">pairs per true_ed group</text>
<text x="20" y="260.0" transform="rotate(-90 20 260.0)" text-anchor="middle" font-size="14">total_cpu_ns for k=5 (seconds)</text>
</svg>